<?xml version="1.0" encoding="UTF-8"?>
<svg id="Layer_1" data-name="Layer 1" xmlns="http://www.w3.org/2000/svg" viewBox="0 0 460.93 228.83">
  <defs>
    <style>
      .cls-1 {
        fill: #467e3c;
      }

      .cls-2 {
        fill: #477e3c;
      }

      .cls-3 {
        fill: #fff;
      }

      .cls-4 {
        fill: #497f3e;
      }

      .cls-5 {
        fill: #497c3f;
      }

      .cls-6 {
        fill: #467e3b;
      }

      .cls-7 {
        fill: #457c3b;
      }

      .cls-8 {
        fill: #457e3a;
      }

      .cls-9 {
        fill: #457d3a;
      }

      .cls-10 {
        fill: #467d3c;
      }
    </style>
  </defs>
  <path class="cls-3" d="M453.99,164.61c-21.77,7.97-42.03.21-63.19-10.34-.18-2.39-1.62-4.38-4.34-5.94,3.09-14.26,1.3-28.6-7.94-40.21-5.76-6.49-12.72-11.62-20.97-15.01-.49-2.75-2.39-4.34-5.67-4.77,23.73-11.94,43.4-41.5,25.3-66.17-8.21-8.51-17.28-15.68-29.98-18.56-43.62-9.9-90.84.51-122.58,31.62l-2.5-.29c-1.62-4.93-3.99-9.5-7.11-13.7-7.56-7.61-16.3-12.75-27.96-13.91-53.68-5.32-95.32,40.25-111.57,89.12-19,4.07-34.29,2.72-49.08-8.43-5.38-7.8-7.64-17.47-6.21-26.83l-1.81-2.67C13.18,54.36-.16,66.39,0,82.53c.1,9.79,6.73,16.84,13.62,23.44,16.03,11.84,34.17,10.07,52.52,7.13,0,2.08.4,3.68,1.21,4.77.16.22.33.43.54.62.16.16.33.29.53.41l-.14,1.93c0,.14,0,.29-.02.43l-.1,1.16c-3.04,15.75-3.74,32.81-1.19,49.19,2.64,16.95,11.36,30.03,23.12,40.74,29.89,21.71,63.15,11.17,87.45-13.37,12.73-16.22,26.72-31.8,47.41-36.12-1.83,2.71-2.23,4.92-1.19,6.64.24.41.56.8.95,1.15-7.22,17.41,2.82,33.24,15.9,44.77,48.14,24.52,115.71-1.59,139.9-49.16,2.29,2.29,4.46,2.99,6.49,2.08,15.34,12.25,53.26,27.1,66.33,6.22,2.29-3.66,3.6-6.13.67-9.95ZM264.47,160.94c.13,6.24,2.15,10.68,6.97,14.27,2.9,2.15,5.63,11.04,23.23,6.59l2.4-30.4c17.27-1.48,34.23.84,50.78,4.74l-.02,2.16c-16.74,32.5-52.61,52.2-89.34,46.53-6.51-1-10.61-4.15-14.9-7.26-4.66-16.95,5.19-30.19,20.86-36.65ZM346.56,109.74c7.11,8.86,9.96,20.91,6.62,31.62-18.36-6.4-36.11-8.74-53.9-8.26l6.65-34.36c.75,0,1.27-.06,1.7-.05,5.49,12.84,21.01,2.77,38.93,11.04ZM220.14,101.71c7.3,8.42,19.48,12.3,30.81,8.13,4.46-1.62,8.02-4.98,9.28-9.39-2.43-2.43-5.03-6.09-7.65-7.08-5.12-.48-8.88-2.36-12.84-5.33-4.97-16.66.62-33.1,13.56-45.26,22.72-21.36,62.92-31.14,90.88-17.89,2.58,3.39,5.22,6.86,5.9,12.27,3.17,24.91-16.33,47.44-41.14,48.9,3.69-15.83,10.71-31.64,18.28-46.63-2.1-3.31-4.47-5.47-7.03-7.11-4.23-2.71-9.72-2.78-15.13-2.56-10.06.4-16.88,6.87-19.64,16.33l-7.48,25.56-13.13,67.25c-35.82,1.77-71.17,11.41-92.47,40.41-15.32,20.83-41.57,33.26-58.88,18.22-13.84-29.92-4.87-64.8,7.45-96.01l35.84-13.81c1.26,2.36,3.85,3.64,5.3,5.62,10.79,14.58,34.74,12.14,49.81-1.65,2.04,4.11,5.47,6.78,8.29,10.04ZM176.07,81.62c-1.29-3.87,2.37-7.16,3.72-10.66.19-3.45-4.54-6.22-6.41-8.1-3.98-3.96-9.25-3.96-13.84-.06-7.42,6.27-16.52,9.79-25.18,12.43,12.86-23.27,37.67-52.01,64.34-45.94,12.6,19.61-5.09,55.36-22.63,52.34Z"/>
  <g>
    <path class="cls-8" d="M453.98,164.61l6.95,6.7c-.42,8.49-6.76,14.97-15.33,16.77-20.48,4.3-41.49-6.16-59.37-19.11-19.32,40.86-61.78,60.6-106.12,59.85-15.45-.26-28.81-3.95-39.53-13.4,9.63,3.6,19.09,5.92,29.66,6.38,45.47,1.95,89.25-18.02,109.09-59.67,18.41,12.76,38.14,23.31,59.36,19.13,8.54-1.84,14.25-8.1,15.28-16.64Z"/>
    <path class="cls-8" d="M224.71,170.64c.18-.67-.57-1.29-1.08-1.12-16.85,5.55-27.14,17.31-37.65,30.32-24.58,30.43-66.75,39.06-95.89,12.52,26.25,14.49,54.57,11.25,77.95-8.09,8.61-7.12,14.42-15.83,21.81-23.99,10.6-11.69,25.1-17.97,40.23-22.58l-5.37,12.94Z"/>
    <path class="cls-8" d="M357.53,93.12c-3.77-1.54-8.23-1.95-11.64-5.09,28.02-11.92,44.18-39.61,31.29-65.86,11.09,11.49,14.44,27.29,7.5,42.99-5.49,12.43-15.43,21.57-27.15,27.96Z"/>
    <path class="cls-6" d="M68.16,122.42c.2-1.32.24-4.15-.87-4.58-2.26-.88-31.8,9.07-53.67-11.88,11.26,4.81,23.54,7.86,36.27,6.31l20.7-2.52-2.44,12.66Z"/>
    <path class="cls-2" d="M390.8,154.27c-2.36-1.18-5.01-2.06-7.45-4.43,3.23-14.62,1.89-29-4.84-41.71,2.49,2.81,5.34,5.21,7.55,9.36,6.08,11.46,6.91,24.3,4.74,36.78Z"/>
    <path class="cls-10" d="M26.39,88.03c-8.96-6.76-11.33-18.69-8.02-29.5,1.85,1.48,6.25,4.02,6.6,7-1.49,8.08-1.59,15.22,1.42,22.5Z"/>
    <path class="cls-5" d="M224.61,35.23c-1.25,1.22-1.59,3.21-4.28,4.29-.33-7.36-3.19-12.45-5.33-18.28,3.87,3.88,7.82,8.16,9.61,13.99Z"/>
    <path class="cls-8" d="M344.17,24.89c-27.96-13.26-68.16-3.47-90.88,17.89-12.94,12.16-18.52,28.6-13.56,45.26-14.39-10.82-10.23-37.51,8.16-53.52,28.44-24.76,80.13-30.86,96.28-9.63Z"/>
    <path class="cls-8" d="M120.9,101.51c-12.32,31.21-21.29,66.09-7.45,96.01-23.38-20.31-12.67-72.17.56-102.9l38.34-15.17,4.39,8.24-35.84,13.81Z"/>
    <path class="cls-8" d="M303.67,91.25c-.4,2.88,1.4,5.3,2.26,7.5l-6.65,34.36-8.37.22,7.51-39.85c4.12-21.88,12.16-41.89,21.77-61.16,2.56,1.64,4.93,3.8,7.03,7.11-7.57,14.99-14.59,30.79-18.28,46.63-2.24,1.21-4.87,2.32-5.27,5.19Z"/>
    <path class="cls-8" d="M198.7,29.28c-26.67-6.06-51.48,22.68-64.34,45.94l-13.75,4.22c6.84-13.96,14.91-26.05,25.33-37.16,16.23-17.28,42.27-29.31,52.75-13Z"/>
    <path class="cls-6" d="M347.84,158.31l.02-2.16c-16.55-3.9-33.51-6.22-50.78-4.74l-2.4,30.4c-17.6,4.46-20.34-4.44-23.23-6.59,5.28.99,10.96,1.53,16.33-.29l2.61-30.49c21.12-1.4,40.42,1.77,60.15,7.45.02,2.64-1.62,4.39-2.69,6.43Z"/>
    <path class="cls-9" d="M243.61,197.59c-8.91-6.49-10.5-19.76-3.72-29.68,5.82-8.53,14.7-13.99,24.35-16.98l.24,10.01c-15.68,6.46-25.53,19.7-20.86,36.65Z"/>
    <path class="cls-6" d="M211.85,91.66c-15.07,13.8-39.02,16.23-49.81,1.65,16.04,7.03,33.74,1.73,46.07-12.25,1.64,4.12,2.21,7.54,3.74,10.6Z"/>
    <path class="cls-1" d="M260.22,100.45c-1.26,4.41-4.82,7.77-9.28,9.39-11.33,4.17-23.5.29-30.81-8.13,13.8,5.82,30.6,3.37,32.43-8.29v-.05c2.63.99,5.22,4.65,7.65,7.08Z"/>
    <path class="cls-7" d="M346.56,109.74c-17.92-8.28-33.43,1.8-38.93-11.04l19.92.81c7.99.32,14.47,4.6,19,10.23Z"/>
    <path class="cls-4" d="M176.07,81.62c-2.82-.48-5.25-2.16-6.24-4.04-2.88-5.54,1.37-9.37,3.55-14.72,1.88,1.88,6.6,4.65,6.41,8.1-1.35,3.5-5.01,6.8-3.72,10.66Z"/>
  </g>
</svg>