<?xml version="1.0" encoding="UTF-8"?>
<svg xmlns="http://www.w3.org/2000/svg" viewBox="0 0 864 165.11">
  <defs>
    <style>
      .cls-1 {
        fill: #487d3d;
      }

      .cls-2 {
        fill: #4b8041;
      }

      .cls-3 {
        fill: #497e3e;
      }

      .cls-4 {
        fill: #f4f4f4;
      }

      .cls-5 {
        fill: #467b3c;
      }

      .cls-6 {
        fill: #4a7f3f;
      }
    </style>
  </defs>
  <g id="Layer_2" data-name="Layer 2">
    <g>
      <path class="cls-6" d="M770.14,82.57c3.32-2.09,3.34-7.81,1.91-12.58,4.86,3.51,5.77,10.79,1.94,16.31-1.77-.82-2.81-2.41-3.85-3.73Z"/>
      <path class="cls-6" d="M771.41,69.49c-.32-.16-.58-.43-.72-.81l.72.81Z"/>
      <g>
        <path class="cls-4" d="M621.79,28.04l.72.71c.02.13,0,.34-.09.51,5.47,11.73,1.01,26.48-10.76,32.74-4.89,2.6-10.47,2.61-15.2.72l-3.08-3.31c-.75-.81-.66-2.28-1.68-3.46-5.2.47-10.07.22-15.27-.71-7.01,14.99-12.72,33.2-9,48.93.88,3.73,2.66,6.88,5.46,8.94,12.34,9.05,30.82-5.53,36.48-20.07.82-7.6,2.87-14.69,6.69-20.95,3.52-5.77,8.54-8.33,14.58-10.01,5.32-1.48,8.89-.92,12.5,3.07,2.13,4.93,2.34,10.25,1.66,16.06,1.85.4,3.05-.69,4.22-1.2,1.33-.58,2.37-1.08,2.99-2.75,2.3-6.29,6.44-11.65,12.32-14.76,4.83-2.56,10.27-2.62,14.7,1.22l6.04-22.09c1.42-5.19,3.43-10.54,6.95-14.73s10.8-2.38,13.47.82l-8.61,19.04c-6.3,16.19-10.47,32.74-12.35,50-.42,3.83.98,6.89,2.79,6.39.39-.11.67-.48,1.08-.91,1.49-1.17,4.52-3.62,4.41-6.13-.47-10.39,1.77-20.51,8.65-28.42,3.89-4.48,8.89-7.3,14.76-7.73,4.49-.32,7.07,1.99,9.82,4.39,4.02,12.7-8.13,25.19-21.66,27.31l1.21,8.19c.29,1.98,1.85,2.52,3.17,3.16,5.47,2.64,13.29-2.27,16.86-7.2l15.09-20.86c6.26-8.65,21.16-16.26,30-6.25.14.38.4.65.72.81.2.23.45.37.64.51,1.43,4.76,1.41,10.48-1.91,12.58l-2.77-3.5c-2.23-2.82-5.79-4.45-9.73-3.56-5.14,1.16-9.93,3.67-13.5,7.65l-16.68,18.57c-7.11,7.91-19.45,12.98-28.16,7l-1.38-1.3-3.36-4.59c-4.57,6.86-10.94,10.92-17.17,7.49-2.12-1.18-2.68-3.44-2.89-5.73-.24-2.56-.16-5.1-1.2-8.25-4.45,8.93-10.67,17.83-19.81,14.72-1.51-1.95-3.41-3.58-4.14-6.58-1.09-4.46-1.34-9.02-.87-13.39l.52-4.78c-2.09.41-3.84,1-5.74,2.01-3.65,13.59-13.47,28.17-27.01,22.59l-3.02-2.76c-1.26-1.15-1.28-3.5-2.72-4.84-12.26,18.18-30.06,27.31-49.33,16.47-5.32-4.6-9.08-10.54-10.59-17.81-3.58-17.24,1.06-33.44,8.33-48.72l1.18-2.49c-24.57-6.62-51.7-13.49-77.06-8.58-7.57,1.46-13.9,4.84-19.13,10.27-3.14-5.78-.54-13.37,5.25-17.4,22.04-15.37,68.43,1.37,94.36,10.35,11.6-16.96,29.29-28.23,49.87-23.17,3.41,1.24,6.09,3.49,8.43,5.8ZM584.78,51.06c8.96,1.84,12.56-7.87,16.79-3.24-.69,2.59-2.6,4.48-1.72,6.58.55,1.31,1.64,2.15,3.03,2.5,8.04,2.05,16.9-14.97,11.51-24.68-3.65-6.58-13.44-4.47-20.74,1.07-5.85,4.43-10.37,10.03-14.15,16.79,1.74.84,3.65.66,5.28.99ZM710.26,83.47c4.39-2.84,7.51-7.65,8.17-13,.15-1.19-.01-2.18-.28-3.05-.29-.94-1.74-1.9-2.99-.95-6.31,4.8-8.3,11.35-9.88,19.31,2.24-.14,3.43-1.3,4.98-2.31ZM663.18,100.99c5.34-1.09,10.82-17.41,13.12-25.18.48-1.61.34-3.24,0-4.71-.37-1.6-1.37-3.15-2.72-3.49-1.64-.41-3.58.6-4.86,2.11-10.01,11.82-10.59,32.29-5.54,31.26ZM635.85,81.09c.59.4,1.73,1.02,1.79.56.44-3.33.64-6.37-.13-9.44l-.76-3.04c-.23-.92-2.29-1.84-3.22-.69-3.07,3.78-1.62,9.95,2.33,12.61ZM624.23,103.77c5.75,1.16,8.73-7.04,11.42-13.99-2.81-2.05-5.33-4.05-7.48-6.76l-2.65-6.21c-4.88,8.65-7.03,25.8-1.28,26.96Z"/>
        <path class="cls-4" d="M197.07,31.25c5.78,11.42,1.95,26.33-9.07,33.24-5.11,3.2-11.11,3.51-16.32,1.6l-3.04-2.81-1.78-4.16-19.03,7.49c-6.19,14.31-11.19,41.62.22,49.86,12.27,8.86,31.11-5.97,36.42-20.83.8-7.59,3.09-14.53,6.91-20.72,3.49-5.66,8.41-7.75,14.52-9.53,4.35-1.26,8.77-1.6,11.54,2.64,2.89,4.79,2.95,10.48,2.44,16.66,1.71.28,2.71-1.07,3.62-1.43,1.06-.41,1.98-.42,2.29-2.05,2.77-14.53,7.02-28.51,14.01-41.53,2.53-4.71,5.76-8.94,10.41-11.19,4.3-2.09,9.16-.88,11.26,2.95,3.67,17.92-9.86,38.27-23.61,50.45-2.8,9.83-3.92,27.64,1.19,25.23,5.48-2.59,8.27-7.86,8.95-13.85.82-7.23,3.13-14.05,7.22-19.8,5.96-8.39,15.75-12.86,23.23-6.2l6.91-24.31c1.28-4.49,3.15-9.13,6.37-12.57,3.64-3.87,10.36-2.34,13.25.83-10.47,20.42-17.53,42.24-20.73,64.98-.7,4.96-.32,10.49,2.08,10.73.52.05.75-.44,1.09-.61,6.1-3.01,8.33-15.31,11.74-14.38.6.16,1.03,1.35,1.55,1.7-3.31,10.49-11.35,23.57-22.3,21.47-2.4-1.75-4.58-3.92-4.8-6.95l-.67-8.96c-4.61,9.15-10.92,19.18-20.27,15l-2.54-2.64-2.02-5.65c-5.57,7.02-11.93,11.93-19.33,8.4-1.6-2.15-3.4-4.19-4.03-7.38-.84-4.23-.99-8.51-.82-12.63l.19-4.72c-1.63.43-4.57.67-5.5,2.1l-4.5,10.59c-3.79,8.91-14.88,17.4-23.91,11.23l-2.05-2.01-2.81-5.12c-11.7,18.54-30.83,27.62-49.73,16.28-12.23-11.76-12.79-27.64-9.64-44.06.29-1.53,1.21-3.01,1.04-5.35-13.22,2.19-26.08,2.85-37.65-2.99-7.05-5.63-9.98-14.49-4.68-22.78,1.86-2.91,4.88-5.01,8.4-5.06l-1.02,3.7c-1.45,5.67.43,11.51,5.02,14.65,8.58,6.99,21.27,7.6,32.6,5.5,8.04-22.52,26.84-43.47,51.62-42.24,6.57.33,11.64,2.88,15.77,7.22ZM158.4,57c3.09-1.41,7.17-2.13,9.97-4.54,2.56-2.2,5.64-3.97,8.26-1.3l-1.37,2.73c-.62,1.31-1.03,2.63-.39,4,.46.98,1.59,2.08,2.99,2.26,8.73,1.13,16.23-14.21,11.74-24.48-1.43-3.26-5.41-4.75-8.95-4.35-13,1.45-23.81,15.87-29.41,28.06,2.84-.58,4.96-1.37,7.15-2.37ZM247.29,63.72c3.84-5.87,6.55-12.15,8.34-19,.57-2.18.83-4.17-.35-6.42-1.88.63-3.37,2.04-4.23,3.81-4.81,9.92-8.34,20.02-11.17,30.99,3.05-2.71,5.19-5.98,7.41-9.38ZM262.69,104.5c5.61-2.1,10.84-18.02,13.19-26.15.42-1.46.04-2.81-.39-4.01-.4-1.09-.52-2.19-1.36-2.81-5.5-4.04-16.19,13.54-14.47,30.46.17,1.62,1.94,2.91,3.03,2.51ZM210.26,83.85c.86.53,1.35,1.45,2.47,1.19.51-3.11.4-6.77-.03-9.83-.2-1.38-1.56-4.96-3.45-3.67-3.9,2.66-2.65,10.03,1.02,12.3ZM199.52,107.48c4.56,1.04,8.87-7.45,10.94-13.61-2.09-3.11-6.5-5.26-7.64-8.06l-2.27-5.61c-4.87,8.57-7.21,25.87-1.03,27.29Z"/>
        <path class="cls-4" d="M394.08,30.66c5.72,7.33,6.12,17.03,1.43,25.37-3.7,6.59-9.72,10.92-16.48,13.86l6.61,2.34c3.91,1.39,6.97,4.43,9.8,7.32,4.47,7.57,5.26,16.49,2.82,25.04l3.9,1.79,15.6,7.41,2.83,1.39,8.87,4.02,28.58,10.83c24.32,7.72,64.6,16.53,82.51-3.17.41-.45,1.03.12,1.08.43,1.01,4.91-.06,9.99-3.81,14.01-19.09,20.5-71.12,4.46-95.21-7.52l-46.35-23.05c-11.08,22.49-35.76,32.86-59.84,30.08-5.87-.68-10.94-2.73-15.79-5.38-8.32-6.67-10.97-18.78-4.9-28.08,4.82-7.38,12.61-11.08,21.08-12.69,3.36-14.21,9.77-48.14,16.53-55.71,3.64-4.08,10.27-3.67,14.32-1.19-2.99,8.35-7.8,17.09-10.19,26.42l-7.27,28.38,4.39.29c9.43.61,18.6,2.39,28.13,5.85,1.31-7.8.68-12.69-3.47-18.27-4.83-6.49-12.14-5.14-19.24-6.09l-.96-.12c-.33-.98-.82-2.18-.79-3.49.04-1.48,1.52-2.38,2.54-3.16,6.98-.2,13.66-4.2,17.35-9.22,4.67-6.36,5.87-13.7,3.84-20.75-.62-2.18-2.13-3.32-3.29-4.76-2.39-2.99-6.23-4.72-10.51-5.46-11.94-2.06-24.41.72-34.37,7.65-14.37,10-14.64,28.27-7.12,32.07l4.93,2.49c-.75,5.71-8.41,6.21-15.09,3.99-4.46-3.02-6.66-8.42-6.49-14.31.86-30.03,40.37-45.31,70.57-36.89,5.58,1.55,10.28,4.24,13.45,8.31ZM338.78,115.31c-2.43-2.77-3.35-5.19-3.2-9.18l.19-4.75c-5.66,1.64-10.47,4.29-13.83,8.77-4.18,5.57-3.18,13.4,2.16,17.25,2.06,1.48,3.92,2.9,6.82,3.32,20.12,4.61,40.92-5.72,49.34-24.19.02.22.96-1.68.61-1.82-10.18-4.01-20.79-5.96-31.77-5.57l-1.75,15.9c-2.84,1.47-5.84.98-8.56.27Z"/>
        <path class="cls-4" d="M420.53,54.57c.89,4.74-.22,9.3-1.64,14.1l4.46-.05,4.67-.23c2.76-.13,4.38,1.08,6.14,2.45,1.43,2.88,1.16,5.68,0,8.82l-6.07,16.33c-1.58,4.26-2.02,9.91.5,10.76.47.16,1.08.01,1.78-.3,4.64-2.04,8.33-7.35,9-12.8.82-6.7,2.18-13.01,5.73-18.66,6.45-10.24,18.79-15.68,27.31-7.79,4.74,12-7.05,25.46-20.61,27.54-1.49,4.06-.21,8.91,3.34,11.07,2.32,1.42,5.14,1.58,7.93-.08,8.33-4.99,13.62-13.45,15.73-22.99l1.97-17.77c3.5-2.98,8.7-.36,11.33,2.26.34,2.51.93,4.98.35,7.56l-4.7,21.05c-.54,2.41-.98,5.6.04,7.75.7,1.49,2.42.01,2.98-.61l2.28-2.54c5.41-8.35,7.64-17.57,9.68-27.38,2.58-2.54,9.35-1.62,10.91,1.83.83,2.13.39,4.2-.21,6.55-2.37,9.33-5.77,25.08.29,22.78,1.34-.51,2.1-1.2,3.01-2.58,6.3-9.56,9.63-20.55,8.8-32.15-.2-2.78-.6-5.95-2.59-7.84l-5.19-4.93c2.15-2.8,5.39-3.37,8.45-2.4,2.46.78,3.66,2.65,5.34,4.01,1.81,3.89,2.96,7.88,2.61,12.64-1.07,14.7-6.99,29.12-17.55,39.18-3.59,3.42-8.48,4.32-12.44,2.87-2.07-1.23-3.48-3.2-3.99-5.5l-1.56-7.08c-4.59,8.07-9.86,15.81-18.4,12.61-1.07-1.53-2.92-2.52-3.18-4.79l-.9-7.81c-7.87,10.18-16.89,17.55-29.2,12.5l-3.89-4.09-2.74-5.29c-4.88,8.02-11.5,13.17-19.68,10.6-.69-.22-1.54-.66-2.07-1.28-3.49-4.13-4.96-10.51-3.07-16.07l5.95-17.81c.67-.27,1.18-1.58,1.13-2.63l-6.17-.85-8.22,17.53c-.51,1.09-2.31,1.16-3.12,1.01-.63-.76-1.59-1.75-.94-3.05,2.71-5.42,5.5-10.71,7.29-16.52-2.3-2.13-4.42-4.14-5.04-7.06-1.22-5.67,1.45-11.63,6.25-14.63,2.95-1.85,6.61-1.09,7.93,1.75ZM456.66,86.07c3.18-3.07,4.68-7.05,5.47-11.53.24-1.39.5-3.98-.95-4.77-3.16-1.72-8.67,11.1-8.99,19.13,2.37-.07,3.23-1.63,4.47-2.83Z"/>
        <path class="cls-6" d="M541.63,127.3c5.9,3.35,4.51,12.63-1.05,18.09-20.02,19.67-71.54,3.39-96.04-8.81l-44.93-22.37c-11.86,23.82-38.52,33.87-63.88,29.36-5.92-1.65-11.25-3.83-15.11-8.14,4.86,2.64,9.93,4.7,15.79,5.38,24.09,2.79,48.76-7.59,59.84-30.08l46.35,23.05c24.09,11.98,76.13,28.03,95.21,7.52,3.74-4.02,4.82-9.1,3.81-14.01Z"/>
        <path class="cls-6" d="M239.07,107.12c-5.11,2.41-3.98-15.4-1.19-25.23,13.74-12.18,27.27-32.52,23.61-50.45,2.61,1.33,3.87,4.29,4.03,7.53.81,16.95-11.54,35.06-24.26,46.42-1.72,7.2-2.85,14.36-2.19,21.72Z"/>
        <path class="cls-6" d="M558.9,53.26c-22.87-6.41-48.69-12.32-72.37-7.68-7.53,1.48-14.06,4.59-18.92,10.7-1.94-.97-2.88-2.29-3.72-3.83,5.23-5.43,11.56-8.81,19.13-10.27,25.37-4.9,52.49,1.97,77.06,8.58l-1.18,2.49Z"/>
        <path class="cls-1" d="M767.36,79.07c-9.08-2.03-17.12,4.06-23.44,11.29l-10.77,12.34c-4.76,5.46-10.43,9.89-17.57,11.57-6.36,1.5-12.67-.55-16.29-5.55,8.72,5.98,21.06.91,28.16-7l16.68-18.57c3.57-3.98,8.37-6.49,13.5-7.65,3.94-.89,7.5.74,9.73,3.56Z"/>
        <path class="cls-3" d="M688.38,102.21c-.41.43-.69.8-1.08.91-1.81.5-3.21-2.56-2.79-6.39,1.88-17.26,6.05-33.81,12.35-50l8.61-19.04c.81.97,3.92,1.86,3.12,3.66l-8.73,19.73c-5.99,16.06-10.23,32.23-11.95,49.24-.08.82-.01,1.49.46,1.88Z"/>
        <path class="cls-3" d="M287.43,106.34c-.34.17-.57.66-1.09.61-2.4-.25-2.78-5.77-2.08-10.73,3.21-22.74,10.26-44.57,20.73-64.98.84.92,3.47,1.83,3.33,3.66-10.21,19.82-17.09,40.92-20.46,63.06l-.44,8.39Z"/>
        <path class="cls-1" d="M378.71,32.82c-14.9-6.51-37.18-1.29-47.48,11.13-5.55,6.69-7.73,15.33-4.52,23.13-7.52-3.8-7.25-22.07,7.12-32.07,9.96-6.93,22.43-9.71,34.37-7.65,4.28.74,8.12,2.48,10.51,5.46Z"/>
        <path class="cls-6" d="M504.15,113.05c3.96,1.45,8.85.55,12.44-2.87,10.56-10.06,16.48-24.48,17.55-39.18.35-4.77-.8-8.75-2.61-12.64,3.77,3.07,5.93,7.81,5.97,13.26.1,13.81-4.94,26.74-13.31,37.56-2.79,3.61-6.07,6.63-10.58,7.71-3.83.92-7.95-.52-9.46-3.83Z"/>
        <path class="cls-1" d="M593.39,59.4c-4.49.54-8.83-.1-13.6-.72-7.74,16.79-14.31,37.88-6.9,54.42-2.8-2.06-4.58-5.2-5.46-8.94-3.72-15.73,2-33.94,9-48.93,5.21.94,10.07,1.19,15.27.71,1.03,1.18.93,2.65,1.68,3.46Z"/>
        <path class="cls-1" d="M168.64,63.28l-17.37,6.8c-5.85,14.68-9.95,32.46-3.21,46.4-11.42-8.24-6.41-35.56-.22-49.86l19.03-7.49,1.78,4.16Z"/>
        <path class="cls-1" d="M360.8,67.56c-1.02.78-2.5,1.68-2.54,3.16-.03,1.32.46,2.51.79,3.49-1.98,5.95-3.38,12.25-4.46,18.63l-4.39-.29,7.27-28.38c2.39-9.33,7.2-18.07,10.19-26.42,1.62.99,2.86,2.06,3.94,3.93-4.67,8.31-7.97,17.13-10.79,25.87Z"/>
        <path class="cls-1" d="M613.21,108.16c-3.66,4.42-7.24,8.62-11.81,12.29-9.47,7.6-21.91,9.36-33.03,4.55-3.02-1.31-5.06-3.34-7.21-5.2,19.27,10.84,37.08,1.7,49.33-16.47,1.44,1.34,1.46,3.69,2.72,4.84Z"/>
        <path class="cls-3" d="M188.17,111.5l-8.06,9.04c-13.12,12.62-31.95,14.18-44.48,2.13,18.91,11.34,38.03,2.25,49.73-16.28l2.81,5.12Z"/>
        <path class="cls-6" d="M596.47,62.72c4.73,1.89,10.31,1.88,15.2-.72,11.77-6.26,16.23-21,10.76-32.74,8.06,6.57,7.14,20.23.63,29.25-4.16,5.77-10.42,9.17-17.56,8.9-3.96-.15-6.62-2.09-9.04-4.69Z"/>
        <path class="cls-2" d="M171.68,66.09c5.22,1.91,11.22,1.59,16.32-1.6,11.02-6.91,14.85-21.82,9.07-33.24,3.17,3.33,5.69,7.21,5.97,12.47.4,7.34-1.62,14.41-6.52,19.88-4.76,5.31-11.59,8.22-18.61,6.65-2.73-.61-4.51-2.56-6.23-4.15Z"/>
        <path class="cls-3" d="M708.73,102.98c-1.31-.63-2.87-1.18-3.17-3.16l-1.21-8.19c13.53-2.12,25.68-14.62,21.66-27.31,3.75,3.29,5.31,7.78,3.48,13.16-3.22,9.46-11.6,15.74-21.69,17.6l.93,7.9Z"/>
        <path class="cls-6" d="M223.94,94.31c-1.46-.18-2.24.75-2.71,2.24-2.2,6.99-5.38,13.48-10.66,18.34-6.35,5.84-15.5,5.45-20.36-1.38,9.03,6.18,20.12-2.32,23.91-11.23l4.5-10.59c.94-1.43,3.87-1.67,5.5-2.1l-.19,4.72Z"/>
        <path class="cls-1" d="M455.13,105.83c-3.54-2.16-4.83-7.01-3.34-11.07,13.56-2.08,25.35-15.54,20.61-27.54,3.2,2.96,5.39,6.59,4.23,11.68-2.34,10.29-11.16,17.68-21.68,19.33-.76,2.78-.17,5.1.18,7.6Z"/>
        <path class="cls-1" d="M648.46,91.1c-.98-.02-1.79.43-2.12,1.6-2.03,7.25-5.48,13.84-10.94,18.85-5.78,5.29-14.63,5.41-19.18-.63,13.54,5.58,23.37-9,27.01-22.59,1.9-1,3.65-1.59,5.74-2.01l-.52,4.78Z"/>
        <path class="cls-6" d="M385.64,72.23l-6.61-2.34c6.76-2.93,12.78-7.27,16.48-13.86,4.69-8.34,4.29-18.04-1.43-25.37,7.93,6.23,10.15,17.06,5.97,26.54-2.96,6.7-8.29,11.23-14.41,15.03Z"/>
        <path class="cls-6" d="M278.42,115.13c10.95,2.1,18.99-10.98,22.3-21.47,1.26.85,2.51,1.93,2.94,3.01.68,1.7-.32,3.21-.92,4.54-4.26,9.5-11.75,19.93-21.48,16.69-1.68-.56-2.06-2.19-2.84-2.76Z"/>
        <path class="cls-1" d="M430.35,106.47c-.7.31-1.31.46-1.78.3-2.52-.86-2.09-6.5-.5-10.76l6.07-16.33c1.17-3.14,1.44-5.94,0-8.82,2.82,2.2,5.68,5.75,4.18,9.77l-6.07,16.27c-1.2,3.2-2.02,6.32-1.9,9.58Z"/>
        <path class="cls-3" d="M490.76,103.01c-.56.63-2.28,2.11-2.98.61-1.01-2.15-.58-5.34-.04-7.75l4.7-21.05c.57-2.57-.02-5.04-.35-7.56,2.62,2.62,4.85,5.36,3.86,9.85l-4.51,20.49-.68,5.41Z"/>
        <path class="cls-3" d="M477.02,108.28c-1.05-.14-1.78.5-2.61,1.43-7.69,8.63-19.49,11.68-27.49,3.26,12.31,5.05,21.33-2.32,29.2-12.5l.9,7.81Z"/>
        <path class="cls-3" d="M421.43,79.02c-.48.19-1.64-.07-2.06.83l-7.36,15.75c-.56,1.2-1.95,2.52-3.33,1.98-1.65-.64-2.65-2.35-3.62-3.51.81.16,2.61.08,3.12-1.01l8.22-17.53,6.17.85c.04,1.05-.46,2.36-1.13,2.63Z"/>
        <path class="cls-2" d="M125.98,78.61c-.22-.54-.79-1.28-1.7-1.14-8.12,1.19-16.17.98-23.95-.97-4.61-1.15-7.78-3.7-10.96-6.23,11.57,5.84,24.43,5.17,37.65,2.99.17,2.34-.74,3.82-1.04,5.35Z"/>
        <path class="cls-1" d="M513.71,104.25c-6.06,2.31-2.66-13.45-.29-22.78.6-2.35,1.04-4.43.21-6.55,3.45,1.78,4.56,5.14,3.49,8.87-1.95,6.81-3.26,13.59-3.41,20.46Z"/>
        <path class="cls-6" d="M674.49,104.59c-2.45,3-4.75,6.42-8.09,8.7-4.66,3.18-9.9,1.67-12.93-2.23,9.14,3.11,15.37-5.8,19.81-14.72,1.05,3.15.97,5.69,1.2,8.25Z"/>
        <path class="cls-3" d="M273.62,108.18c-2.24,2.83-4.18,5.92-7.22,8.27-4.64,3.6-10.64,2.39-13.72-2.24,9.35,4.18,15.65-5.85,20.27-15l.67,8.96Z"/>
        <path class="cls-1" d="M443.03,108.87c-3.53,3.2-5.38,6.95-11.51,8.88-1.08.34-1.84.53-2.07,1.45l-8.87-4.02.03-1.01c8.18,2.57,14.79-2.58,19.68-10.6l2.74,5.29Z"/>
        <path class="cls-3" d="M500.16,107.55c-2.24,2.63-4.15,5.72-7.09,7.79-4.67,3.28-9.91,1.95-12.87-2.26,8.54,3.2,13.82-4.54,18.4-12.61l1.56,7.08Z"/>
        <path class="cls-6" d="M250.14,111.58l-5.98,4.92c-5.57,3.84-11.64,2.84-15.37-2.18,7.4,3.53,13.76-1.37,19.33-8.4l2.02,5.65Z"/>
        <path class="cls-6" d="M697.91,107.43c-2.8,1.53-4.08,5.07-9.39,6.95-4.48,1.58-8.99-.23-11.14-4.06,6.22,3.43,12.6-.62,17.17-7.49l3.36,4.59Z"/>
        <path class="cls-6" d="M402.16,106.39l-3.9-1.79c2.44-8.56,1.65-17.47-2.82-25.04,7.33,7.49,8.67,16.36,6.72,26.84Z"/>
        <path class="cls-2" d="M316.55,73.56c6.68,2.22,14.34,1.73,15.09-3.99,1.21.61,3.76,2.1,3.56,3.69-.66,3.51-4.49,4.87-7.69,4.89-4.41.06-8.73-1.12-10.95-4.6Z"/>
        <path class="cls-2" d="M97.08,60.78c-4.59-3.14-6.47-8.98-5.02-14.65l1.02-3.7c.96.63,3.42,2.32,3.31,3.83-1.85,5.15-2.08,10.09.69,14.52Z"/>
        <path class="cls-6" d="M423.34,68.62l-4.46.05c1.42-4.8,2.54-9.36,1.64-14.1,2.35,1.1,4.07,3.63,3.74,6.41l-.92,7.64Z"/>
        <path class="cls-2" d="M223.52,83.27c-.92.36-1.91,1.71-3.62,1.43.51-6.18.44-11.88-2.44-16.66,4.95,3.03,6.25,9.46,6.07,15.24Z"/>
        <path class="cls-1" d="M649.01,80c-1.17.51-2.37,1.6-4.22,1.2.68-5.81.47-11.12-1.66-16.06,5.08,5.62,4.67,7.26,5.88,14.86Z"/>
        <path class="cls-1" d="M614.39,32.21c-11.71-3.4-23.9,8.38-29.61,18.84-1.63-.33-3.54-.15-5.28-.99,3.77-6.76,8.3-12.35,14.15-16.79,7.3-5.54,17.1-7.65,20.74-1.07Z"/>
        <path class="cls-5" d="M676.3,71.1c-2-.07-3.73,1.26-5.11,3.06-5.91,7.64-7.99,17.34-8.01,26.83-5.05,1.03-4.47-19.44,5.54-31.26,1.28-1.51,3.22-2.52,4.86-2.11,1.35.34,2.34,1.89,2.72,3.49Z"/>
        <path class="cls-5" d="M718.43,70.47c-4.59,2.72-7.09,7.5-8.17,13-1.55,1.01-2.74,2.16-4.98,2.31,1.58-7.96,3.57-14.51,9.88-19.31,1.25-.95,2.71,0,2.99.95.27.88.43,1.86.28,3.05Z"/>
        <path class="cls-6" d="M628.17,83.02c-3.57,6.34-4.47,13.69-3.93,20.75-5.75-1.16-3.6-18.31,1.28-26.96l2.65,6.21Z"/>
        <path class="cls-5" d="M637.51,72.21c-2.51,0-2.68,4.85-1.66,8.88-3.94-2.66-5.39-8.83-2.33-12.61.94-1.15,2.99-.23,3.22.69l.76,3.04Z"/>
        <path class="cls-1" d="M602.88,56.89c-1.39-.35-2.48-1.2-3.03-2.5-.88-2.1,1.03-3.99,1.72-6.58.87.94,3.82,2.18,3.19,3.88l-1.88,5.21Z"/>
        <path class="cls-1" d="M189.61,35.66c-11.63-3.94-22.59,7.07-29.57,17.31-.92,1.35-1.97,2.46-1.63,4.03-2.19,1-4.31,1.79-7.15,2.37,5.6-12.19,16.41-26.61,29.41-28.06,3.54-.39,7.52,1.09,8.95,4.35Z"/>
        <path class="cls-1" d="M275.48,74.34c-2.55.47-4.42,2.32-5.93,4.59-5.04,7.53-7.08,16.5-6.86,25.57-1.09.41-2.86-.88-3.03-2.51-1.73-16.92,8.97-34.5,14.47-30.46.84.61.96,1.72,1.36,2.81Z"/>
        <path class="cls-5" d="M202.83,85.8c-2.8,6.97-4.61,14.4-3.3,21.68-6.19-1.41-3.84-18.72,1.03-27.29l2.27,5.61Z"/>
        <path class="cls-1" d="M212.69,75.22c-2.8.92-2.59,4.88-2.43,8.64-3.66-2.27-4.92-9.65-1.02-12.3,1.89-1.29,3.25,2.29,3.45,3.67Z"/>
        <path class="cls-6" d="M177.87,60.14c-1.4-.18-2.53-1.28-2.99-2.26-.64-1.37-.23-2.69.39-4l1.37-2.73c.82.83,3.03,1.79,3.19,3.5-.41,1.77-2.21,3.58-1.96,5.48Z"/>
        <path class="cls-5" d="M255.63,44.71c-.42-.21-1.04.06-1.28.59-2.76,6.08-5.31,12.01-7.06,18.41-2.22,3.4-4.35,6.67-7.41,9.38,2.83-10.97,6.36-21.07,11.17-30.99.86-1.78,2.35-3.18,4.23-3.81,1.18,2.25.92,4.24.35,6.42Z"/>
        <path class="cls-6" d="M380.26,106.52c-8.91-2.61-18.19-4.63-27.69-3.85l-2.1,15.2c-3.17,3.79-9.27.21-11.69-2.56,2.72.71,5.72,1.19,8.56-.27l1.75-15.9c10.99-.39,21.6,1.56,31.77,5.57.35.14-.58,2.04-.61,1.82Z"/>
        <path class="cls-1" d="M335.58,106.12c-9.59,3.51-15.76,11.75-11.48,21.27-5.35-3.85-6.34-11.68-2.16-17.25,3.36-4.48,8.16-7.13,13.83-8.77l-.19,4.75Z"/>
        <path class="cls-2" d="M379.25,80.42c-8.52-4.56-15.61.68-19.24-6.09,7.1.96,14.42-.4,19.24,6.09Z"/>
        <path class="cls-5" d="M462.12,74.54c-3.1,2.76-4.37,7.18-5.47,11.53-1.24,1.2-2.1,2.76-4.47,2.83.32-8.03,5.83-20.85,8.99-19.13,1.45.79,1.19,3.38.95,4.77Z"/>
      </g>
    </g>
  </g>
</svg>