<?xml version="1.0" encoding="UTF-8"?>
<svg xmlns="http://www.w3.org/2000/svg" viewBox="0 0 864 165.11">
  <defs>
    <style>
      .cls-1 {
        fill: #487d3d;
      }

      .cls-2 {
        fill: #4b8041;
      }

      .cls-3 {
        fill: #497e3e;
      }

      .cls-4 {
        fill: #f4f4f4;
      }

      .cls-5 {
        fill: #467b3c;
      }

      .cls-6 {
        fill: #4a7f3f;
      }
    </style>
  </defs>
  <g id="Layer_2" data-name="Layer 2">
    <g>
      <path class="cls-4" d="M646.35,33.99c4.48,8.77,2.18,19.08-4.59,26.28-6.9,7.35-17.09,9.86-26.29,5.91-1.12-1.25-3.51-3.32-4.09-4.86-.28-.75-.18-2.95-1.24-3.05-5.56-.51-10.68-1.15-16.18-2.76-9.44,14.16-17.76,32.81-14.63,49.08.69,3.61,2.6,6.59,5.13,8.55,12,9.28,31.5-2.46,39.61-15.49,1.89-6.92,4.55-13.46,9.15-18.62,4.57-6.29,11.13-8.24,18.41-8.86,5.11-.43,8.48.4,11.8,3.94,2.25,5.66,1.39,11.74-.34,17.77,2.08.17,3.63-.6,5.06-.86,1.68-.31,2.67-1.18,3.68-2.78,6.85-10.8,21.53-16.98,30.7-7.47l6.11-12.12c3.87-7.68,8.31-14.76,14.36-20.98,5.27-2.62,11.62-.85,15.08,3.49l-12.57,16.11c-10.16,14.29-18,29.73-23.51,46.37-1.29,3.9-1.08,7.41,1.05,7.74.64.1,1.23-.42,1.75-.76,1.61-1.04,5.21-2.62,5.64-5.07,2.32-16.88,14.96-32.32,32.04-30.04,3.89.52,6.08,2.78,8.59,4.84,1.54,4.01,1.05,8.21-1.54,11.86-5.98,8.44-15.97,12.18-26.34,11.5l-.42,7.47c-.16,2.77,1.6,4.15,3.47,5.12,5.74,2.96,13.4.36,18.53-3.82l18.32-14.93c5.98-4.87,13.36-7.56,21.13-7.37,5.05.13,9.22,2.52,12.3,5.91.13.37.39.64.72.8.17.19.29.43.51.56,2.02,5.25.98,11.41-3.99,14.35-.91-2.34-1.66-4.3-3.12-6.22-5.28-6.95-18.05-4.49-24.96,0l-18.5,12.05c-9.4,6.12-19.78,9.16-29.77,4.47l-4.46-4.78-2.23-4.73c-4.78,4.7-10.88,7.41-16.9,5.31l-.67.1-.62-.81c-2.33-1.7-2.89-4.53-2.72-7.35l.49-8.31c-6.41,8.05-14.11,15.67-23.02,10.94-1.84-2.28-3.25-4.66-3.43-8.09-.24-4.52.28-8.91,1.54-12.95l1.29-4.13c-2.32.07-4.37.23-6.47,1.19-6.3,12.62-18.23,24.9-31.05,17.93l-3.11-3.53-1.87-5.34c-14.9,15.38-31.78,22.45-50.83,12.24-12.49-10.01-13.88-24.27-10.7-40.13,2.35-10.76,7.18-20.16,13.06-29.06.31-.22.91-.72.9-1.15,0-.32-.59-.67-1.13-.86-25.83-9.12-55.21-18.07-82.42-14.05-7.93,1.17-15.14,4.1-20.38,9.94-3.43-5.24-1.11-12.55,4.29-16.57,23.07-17.18,77.61,4.11,104.09,16.19,14.28-15.49,34.48-23.54,54.71-17.08,4.55,1.14,7.63,4.03,10.56,6.95ZM603.4,52.41c10.34,2.72,13.91-5.71,18.57-1.16-.77,2.6-3.42,4.13-2.59,6.74.45,1.43,1.64,2.48,3.18,2.84,7.64,1.81,15.82-7.62,16.61-18.14.18-2.34-.54-4.06-1.64-5.76-4.19-6.46-14.93-4.87-23.02-.52-6.65,3.58-12.07,8.55-16.74,14.51l5.64,1.48ZM653.98,90.09c.85-.15.79.38,1.02.43.49.12.95-.26,1.04-1.01l1.08-8.78c.13-1.05-.44-2.05-.68-2.68-.39-1.04-2.13-1.9-3.26-.9-3.79,3.34-3.05,10.11.8,12.93ZM679.41,114.51c5.71-1.31,13.84-14.99,17.69-22.01.94-1.72,1.19-3.69.94-5.56-1.42-10.7-20.26,3.75-21.66,24.56-.11,1.71,1.49,3.37,3.03,3.01ZM638.54,110.53c2.89.31,5.15-.45,6.8-2.51,2.66-3.31,5.39-6.34,7-10.37-3.18-2.01-5.52-4.5-7.18-7.69l-1.64-6.04c-6.94,7.79-11.29,25.92-4.99,26.61ZM731.24,107.21c5.41-1.82,9.97-6.26,11.93-11.73.43-1.2-.16-2.54-.65-3.18-.63-.83-2.58-.87-3.57-.2l-5.32,3.57c-3.48,3.63-6.01,7.81-8,12.52,2.28.4,3.78-.38,5.62-.99Z"/>
      <path class="cls-4" d="M298.25,28.63c-8.46,18.42-13.33,38.04-15.19,58.38-.76,8.31-.96,20.25,3.56,18.64,1.29-.46,2.48-1.79,3.15-3.17l5.56-11.39c.62-1.27,1.85-1.67,2.82-1.39,1.04.3,1.06,1.62,1.6,2.01-3.36,11.46-10.75,25.68-22.71,22.76-1.39-1.76-3.42-2.97-3.96-5.4l-2-8.93c-4.21,10.34-9.79,20.67-19.81,16.92l-2.46-2.03-2.62-4.95-6.77,7.98c-2.96,3.49-7.6,4.12-11.91,3-2.32-1.29-3.95-3.57-5.14-6.22-1.81-4.03-2.5-8.2-2.99-12.32l-.61-5.21-5.65,2.73c-1.84,11.48-6.24,25.07-17.7,27.65-3.8.86-7.34-.14-10.01-2.48-.4.02-.74-.12-1.04-.24-.73-1.39-1.6-2.73-2.93-4.03-2.93,5.94-5.6,11.03-9.73,15.72-8.91,10.11-22.25,14.93-35.29,11.11l-6.87-2.83c-11.53-9.08-15.34-24.21-15.48-38.7l-.05-4.92c-14.83,6.06-31.77,11.32-45.66,4.2-.18.12-.35.11-.49.08l-.66-.83c-6.06-5.06-7.24-14.47-1.98-20.78,1.42-1.71,3.46-3.48,5.41-3.37-.93,5.18.05,11.12,4.71,14.16,10.69,7.84,27.36,4.42,39.75-.9,3.7-28.02,24.9-54.55,53.79-53.22,5.62.26,9.95,3.13,13.34,6.8,6.89,12.19,2.24,28.52-10.5,34.79-4.78,2.35-9.71,2.63-14.26.91-.2.06-.4.06-.57.03-.04-.35-.28-.73-.6-.88l-.62-.11-2.79-3.92-18.56,11.7c-3.11,14.5-3.08,37.3,7.59,46.4,6.88,5.86,16.24,3.44,22.94-2.61,6.34-5.73,12.2-13.83,13.14-22.64.78-7.25.45-14.08,3.1-20.61,2.88-7.11,7.68-10.66,14.3-13.84,5.57-2.68,11.52-2.78,15.15,3.1,1.66,4.12,2.81,8.57,2.92,13.51,1.5.14,2.39-1.25,3.26-1.64,1.82-.81,2.47-1.47,2.58-3.76.72-15.43,3.44-30.66,9.7-44.67,2.18-4.88,5.5-8.83,10.03-11,4.03-1.92,8.21-1.19,11.01,1.87.14.36.4.62.72.78l.41.6c4.52,17.83-6.87,38.25-19.16,52.25-1.44,9.05-.11,26.83,4.26,24.89,3.97-1.75,7.47-6.91,7.73-11.68.37-7.07.41-13.62,3.13-19.98,4.48-11.31,16.04-20.39,26.01-13.3,2.1-11.45,4.41-32.53,10.83-38.92,3.79-3.77,10.53-3,14.24-.1ZM238.55,69.9c3.85-6.98,6.33-14.5,7.42-22.53.26-1.93-.01-3.77-1.38-5.57-2.33,1.22-3.72,3.19-4.53,5.59-3.44,10.15-5.87,20.2-7.11,31.13,2.38-2.74,3.92-5.57,5.6-8.63ZM141.97,79.09c3.62-2.47,8.12-4.25,11.31-7.71,2.39-2.59,5.45-5.3,8.48-2.64l-1.18,3.79c-.32,1.08,0,2.04.43,2.73.63,1.02,1.62,1.17,2.67,1.49,1.96.59,4.37.02,6.29-1.79,6.13-5.79,7.63-15.54,3.93-23-1.83-3.68-6.62-5.06-10.79-4.02-13.68,3.43-23.16,19.93-26.69,34,2.32-.63,3.9-1.74,5.54-2.85ZM260.52,106.37c4.99-.1,8.44-15.48,10.42-23.36.68-2.68,1.19-5.27.3-7.8-.6-1.72-1.79-3.14-3.42-3.39-6.24-.93-13.57,16.34-10.35,32.27.33,1.63,1.93,2.29,3.05,2.27ZM202.17,93.33c1.25.96,1.84,1.96,3.87,1.99-.11-3.52-.12-7.05-1.88-10.14-.52-.91-.56-2.06-1.39-2.76-.64-.53-2.46-1.2-3.24,0-2.18,3.39-.85,8.94,2.63,10.91ZM194.68,118.69c5.22,2.82,9.18-6.63,10.4-14.36-4.43-1.33-6.41-4.79-9.71-7.07-.68-1.75-1.5-3.42-2.97-4.77-3.06,8.48-3.22,23.23,2.28,26.21Z"/>
      <path class="cls-4" d="M398.25,23.82c4.63,7.55,4.51,16.72-.39,24.43-4.01,6.32-10.09,10.55-16.79,13.55l6.65,1.98c4.9,1.46,8.52,4.79,11.99,8.29,4.03,7.3,5.01,15.58,2.7,23.88l3.9,1.64,17.54,7.68,2.2,1,8.71,3.64c27.4,11.44,61.12,24.33,91.17,22.13,9.1-.66,16.91-3.7,23.53-9.2,1.52,5.07-.16,10.14-4.03,13.82-20.41,19.37-71.94,0-96.68-11.71l-48.33-22.89c-5.07,10.68-13.15,18.93-23.34,24.54-15.87,8.73-38.81,12.31-54.55,3.62-4.62-4.34-8.14-9.49-8.5-15.69-.76-13.27,10.04-22.14,23.48-25.59,2.65-14.56,7.01-47.78,14.12-56.53,3.73-4.59,11.89-4.42,15.88-1.92-4.6,9.78-8.65,19.55-10.84,30.22l-5.16,25.16c1.89.53,2.97.2,4.06.21,9.95.07,19.66,1.21,30.17,4.36,1.62-6.07.5-12.94-3.57-17.53-2.95-3.33-6.96-5.58-11.86-5.54l-9.53.08c-.17-.34-.96-.59-1.4-.74l-.5-3.39c-.18-1.23,1.13-2.13,2.26-2.72,14.32-1.81,25.47-13.79,22.79-28.28-.49-2.64-1.73-4.41-3.23-6.28-2.67-3.33-7.08-5.31-11.92-5.99-13.14-1.85-26.73,1.39-37.64,8.91-13.33,9.17-16.31,26.2-7.77,32.53,1.97,1.46,4.84,2.11,6.9,2.78.05,6.27-10.86,7.74-17.94,4.01-3.93-3.06-6.04-7.9-6.14-13.4-.2-11.27,5.81-21.45,15.19-28.31,17.17-12.55,39.74-16.71,60.43-12.15,6.95,1.53,11.88,4.95,16.42,9.43ZM340.37,109.08c-2.04-2.67-3.33-4.86-3.32-8.36v-5c-5.09,1.81-9.66,4.36-12.9,8.42-4.41,5.53-3.98,13.24,1.29,17.31,1.73,1.34,3.28,2.84,5.94,3.44,21.29,4.44,43.24-6.49,52.17-26.03.26-.19.99-1.61.72-2.36-10.83-3.5-22.11-5.06-33.55-3.88l-.84,16.14c-3.24,1.57-6.42.94-9.5.33Z"/>
      <path class="cls-4" d="M425.33,45.76c.97,4.49.1,8.94-1.71,13.8,1.68.57,3.16,0,4.55-.03l5.41-.13c2.68-.06,5.11.88,6.54,2.75.9,1.88,1.59,4.22.67,6.47l-6.28,15.46c-2.02,4.97-3.48,11.96-.84,13.52.49.29,1.29.32,2,.02,6.53-2.72,9.67-9.33,10.45-16.34,1.65-14.85,13.52-28.23,28.1-26.04,3.28.5,4.97,2.2,6.99,3.87,4.61,12.54-9.23,25.45-22.93,26.9-1.18,4.48.04,9.23,3.79,11.42,2.28,1.33,5.36,1.17,7.99-.21,9.08-4.75,14.99-13.36,17.58-23.26l2.74-16.96c3.43-2.18,9.72-.39,11.69,3.05.37,2.18.97,4.57.29,6.94l-5.9,20.64c-.77,2.71-1.47,5.98-.47,8.63.41,1.1,3.1.04,3.58-.77,7.25-8,11.03-18.36,13.59-29.22,3.95-1.72,8.71-1.18,11.37,1.93l.78.61c-.03.16-.08.34-.06.49.32,2.37-.56,4.53-1.36,6.98-2.96,9.07-7.28,24-.66,21.93,1.67-.52,2.62-1.68,3.79-3.21,6.71-8.73,10.82-19.02,10.94-30.19.03-3.16-.22-6.68-2.48-8.84l-5.06-4.82c5.15-4.84,10.87-1.89,14.85,2.33,1.69,4.21,2.55,8.53,1.75,13.43-2.39,14.47-9.75,27.9-21.03,37.12-3.86,3.16-8.72,3.95-13.1,2.97-1.73-1.87-3.64-3.45-4.15-6.26l-1.28-7.07c-5.58,7.66-11.32,15.34-19.7,11.22-1.88-1.27-3.18-3.32-3.39-5.62-.19-2.09.27-4.26-.64-6.88-8.77,10.33-18.89,17.29-31.3,11.1l-3.3-3.52-2.67-5.72c-4.73,8.22-13.1,13.98-21.09,10.6l-1.26-.79c-3.83-2.41-5.41-12.26-3.6-17.09l6.28-16.79c.29-.79.91-1.46.9-2.73l-6.6-.83-8.4,17.35c-.55,1.13-2.05,1.38-3.07,1.41-.7-.9-2.06-1.67-1.15-3.55,2.57-5.33,5.62-10.44,7.25-16.28-2.21-2.14-4.62-3.91-5.36-6.71-1.63-6.19,1.61-12.69,7.26-15.38,3.12-1.49,6.44-.57,7.73,2.27ZM463.38,77.9c3.74-3.08,5.64-7.57,6.74-12.36.27-1.16.27-3.16-.75-4.05-3.27-2.86-10.02,10.6-10.27,18.94,1.94-.51,3.04-1.51,4.28-2.54Z"/>
      <path class="cls-6" d="M549.47,122.85c3.02,1.49,4.41,3.91,4.16,7.14-.9,11.41-13.12,16.98-24.56,17.95-24.69,2.1-55.61-9.39-78.38-20.19l-46.74-22.16c-11.76,23.36-37.05,34.69-62.79,32.62-7.35-.76-13.69-3.37-18.62-8.01,15.74,8.7,38.68,5.11,54.55-3.62,10.18-5.61,18.26-13.86,23.34-24.54l48.33,22.89c24.74,11.72,76.27,31.08,96.68,11.71,3.88-3.68,5.56-8.74,4.03-13.82Z"/>
      <path class="cls-3" d="M704.81,120.62c-.52.34-1.11.86-1.75.76-2.13-.33-2.34-3.84-1.05-7.74,5.5-16.63,13.34-32.07,23.51-46.37l12.57-16.11c1.34.95,2.94,2.11,3.36,3.95l-12.8,15.95c-10.74,15.26-19.08,31.8-23.83,49.56Z"/>
      <path class="cls-3" d="M575.75,50.62c-24.67-8.14-52.55-16.44-78.59-12.77-8.05,1.14-15.29,3.9-21.01,9.89-1.69-.59-2.55-1.89-3.44-3.24,5.24-5.84,12.45-8.77,20.38-9.94,27.21-4.02,56.6,4.93,82.42,14.05.54.19,1.13.54,1.13.86.01.43-.59.93-.9,1.15Z"/>
      <path class="cls-1" d="M380.72,26.02c-12.6-5.86-29.63-3.08-42.04,3.68-12.14,6.61-20.01,18.82-15.29,31.77-8.54-6.32-5.56-23.35,7.77-32.53,10.92-7.51,24.5-10.76,37.64-8.91,4.84.68,9.25,2.66,11.92,5.99Z"/>
      <path class="cls-3" d="M236.31,112.61c-4.37,1.93-5.7-15.85-4.26-24.89,12.29-14,23.67-34.42,19.16-52.25,1.97.79,3.28,2.94,3.76,5.34,3.47,17.15-7.88,37.06-19.53,50.3-.85,7.36-.76,14.59.87,21.51Z"/>
      <path class="cls-1" d="M790.67,115.58c-6.67-1.98-14.2-1.18-20.28,2.71l-22.67,14.53c-5.57,3.57-12.07,5.15-18.58,4.86-4.84-.22-8.75-2.39-11.71-5.57,9.99,4.69,20.37,1.65,29.77-4.47l18.5-12.05c6.91-4.5,19.68-6.95,24.96,0Z"/>
      <path class="cls-3" d="M286.62,105.66c-4.52,1.61-4.32-10.33-3.56-18.64,1.86-20.34,6.73-39.96,15.19-58.38,1.33,1.04,2.55,1.84,3.42,3.55-8.76,18.88-13.56,38.87-15.32,59.57-.42,4.93-.55,9.45.28,13.91Z"/>
      <path class="cls-3" d="M512.89,107.02c4.38.97,9.24.18,13.1-2.97,11.29-9.22,18.64-22.65,21.03-37.12.81-4.89-.05-9.22-1.75-13.43,3.12,3.31,5.72,7.45,5.42,12.88-.79,14.56-7.8,27.91-18.06,38.32-3.21,3.26-6.95,5.56-11.43,6.05-3.76.41-6.26-1.5-8.33-3.74Z"/>
      <path class="cls-3" d="M611.38,61.32c-4.77-.08-9.16-1.13-14.07-2.4-10.19,15.65-19.99,37.37-12.85,54.22-2.53-1.96-4.44-4.93-5.13-8.55-3.13-16.28,5.19-34.92,14.63-49.08,5.5,1.61,10.63,2.26,16.18,2.76,1.06.1.96,2.3,1.24,3.05Z"/>
      <path class="cls-3" d="M184.39,124.99c-7.3,17.94-23.79,31.49-43.48,26.46-4.47-1.14-8.67-3.18-11.34-6.5l6.87,2.83c13.04,3.83,26.38-1,35.29-11.11,4.12-4.68,6.79-9.78,9.73-15.72,1.32,1.3,2.2,2.64,2.93,4.03Z"/>
      <path class="cls-1" d="M155.7,82.2l-17.95,11.2c-2.83,14.79-3.03,30.02,4.2,42.98-10.67-9.1-10.7-31.9-7.59-46.4l18.56-11.7,2.79,3.92Z"/>
      <path class="cls-3" d="M361.16,60.58c-1.13.59-2.44,1.49-2.26,2.72l.5,3.39-3.81,19.38c-1.09,0-2.17.32-4.06-.21l5.16-25.16c2.19-10.68,6.24-20.44,10.84-30.22,1.16.73,3.87,2.03,3.55,3.73-4.06,8.58-7.9,17.45-9.92,26.36Z"/>
      <path class="cls-6" d="M615.47,66.18c9.2,3.95,19.39,1.44,26.29-5.91,6.77-7.21,9.07-17.51,4.59-26.28,8.76,8.74,6.77,21.48-1.51,30.01-6.3,6.49-15.1,9.08-23.79,6.33-2.52-.8-4-2.39-5.58-4.14Z"/>
      <path class="cls-2" d="M157.49,83.15c4.54,1.72,9.48,1.44,14.26-.91,12.75-6.27,17.39-22.6,10.5-34.79,1.74,1.88,3.69,3.46,4.78,6.34,3.99,10.49.96,22.71-8.11,29.53-6.96,5.23-17.38,6.4-21.43-.18Z"/>
      <path class="cls-6" d="M626.09,112.9l-12.93,9.78c-10.9,6.48-24.01,6.94-35.09.87l-4.68-3.75c19.05,10.21,35.92,3.14,50.83-12.24l1.87,5.34Z"/>
      <path class="cls-3" d="M726.27,126.29c-1.88-.97-3.63-2.35-3.47-5.12l.42-7.47c10.37.69,20.35-3.06,26.34-11.5,2.59-3.66,3.08-7.86,1.54-11.86,4.48,3.68,5.8,9.55,2.12,14.89-5.94,8.61-16,12.63-26.58,11.83l-.36,9.23Z"/>
      <path class="cls-3" d="M219.4,102.54c-2.03-.18-2.96,1.07-3.32,3.16-2.08,12.42-8.42,26.23-20.69,25.62-3.91-.2-7.72-2.57-9.97-6.09,2.67,2.34,6.21,3.33,10.01,2.48,11.47-2.58,15.87-16.16,17.7-27.65l5.65-2.73.61,5.21Z"/>
      <path class="cls-1" d="M462.08,97.42c-3.75-2.18-4.98-6.94-3.79-11.42,13.69-1.44,27.54-14.35,22.93-26.9,3.79,3.13,5.48,7.68,3.57,12.97-3.52,9.75-12.66,15.96-23.07,17.36-.95,2.91-.25,5.48.36,7.99Z"/>
      <path class="cls-3" d="M665.43,101.44c-1.29-.11-1.82.59-2.49,1.82-3.6,6.72-8.41,12.92-15.09,16.58-6.55,3.59-14.07,1.8-18.65-3.4,12.82,6.97,24.75-5.32,31.05-17.93,2.1-.96,4.15-1.13,6.47-1.19l-1.29,4.13Z"/>
      <path class="cls-6" d="M387.73,63.78l-6.65-1.98c6.7-3,12.77-7.23,16.79-13.55,4.9-7.71,5.02-16.88.39-24.43,7.07,6.97,8.98,17.34,3.74,26.56-3.29,5.78-8.44,10.16-14.26,13.4Z"/>
      <path class="cls-6" d="M114.09,106.24c-11.91,4.37-27.54,8.88-39.37,4.05-2.66-1.08-5.06-2.47-6.34-4.77,13.89,7.12,30.84,1.86,45.66-4.2l.05,4.92Z"/>
      <path class="cls-3" d="M277.06,114.48c11.95,2.93,19.34-11.3,22.71-22.76.94.64,2.38,1.41,2.85,2.46,1.25,2.78-4.69,17.14-12.83,22.31-4.74,3.01-9.8,1.7-12.73-2.02Z"/>
      <path class="cls-6" d="M499.59,95.49c-.48.81-3.17,1.87-3.58.77-.99-2.66-.3-5.92.47-8.63l5.9-20.64c.68-2.38.08-4.76-.29-6.94,3.09,1.74,4.86,5.64,3.81,9.41l-6.18,22.08c-.4,1.42-.54,2.67-.13,3.95Z"/>
      <path class="cls-1" d="M435.67,97.63c-.7.29-1.5.27-2-.02-2.64-1.56-1.18-8.55.84-13.52l6.28-15.46c.91-2.25.23-4.59-.67-6.47,3.18,1.95,5.61,5.95,4.04,9.85l-6.26,15.58c-1.33,3.31-2.16,6.6-2.22,10.04Z"/>
      <path class="cls-5" d="M484.37,99.29l-5.87,4.95c-4.04,3.43-9.02,5-14.36,4.89-4.85-.1-8.71-2.41-11.72-5.63,12.41,6.19,22.53-.77,31.3-11.1.91,2.62.45,4.79.64,6.88Z"/>
      <path class="cls-6" d="M426.78,70.21c-.71-.29-2.27-.41-2.78.63l-8.57,17.25c-.64,1.3-3.15.74-3.85-.15l-1.97-2.53c1.02-.03,2.52-.28,3.07-1.41l8.4-17.35,6.6.83c.02,1.27-.6,1.94-.9,2.73Z"/>
      <path class="cls-1" d="M273.1,109.09c-2.59.1-3.11,7.22-9.79,10.96-4.42,2.47-9.66,1-12.02-2.97,10.02,3.75,15.6-6.57,19.81-16.92l2,8.93Z"/>
      <path class="cls-6" d="M523.25,98.22c-6.62,2.07-2.3-12.87.66-21.93.8-2.45,1.67-4.61,1.36-6.98,3.07,1.19,4.05,4.73,2.91,7.98-2.44,6.94-4.72,13.8-4.92,20.93Z"/>
      <path class="cls-5" d="M449.13,99.99c-.43.08-.98.28-1.33.75-3.29,4.55-7.76,7.56-13.03,9.18l-8.71-3.64c-.19-.4-.31-1.15-.7-1.4,7.99,3.37,16.36-2.39,21.09-10.6l2.67,5.72Z"/>
      <path class="cls-1" d="M689.84,119.85c-2.99,2.63-6,5.47-10.02,6.89-5.04,1.79-9.48-.51-12.51-4.27,8.92,4.73,16.62-2.88,23.02-10.94l-.49,8.31Z"/>
      <path class="cls-1" d="M248.83,115.04c-2.79,2.98-5.05,6.29-8.74,8.37-4.36,2.46-10.34,2-12.56-2.33,4.31,1.11,8.94.49,11.91-3l6.77-7.98,2.62,4.95Z"/>
      <path class="cls-3" d="M508.74,100.76c-2.37,1.33-3.7,4.57-8.12,7.26-4.67,2.84-10.31,1.4-12.87-3.11,8.38,4.12,14.12-3.57,19.7-11.22l1.28,7.07Z"/>
      <path class="cls-6" d="M312.35,68.25c7.08,3.74,17.99,2.26,17.94-4.01,1.24.41,3.54,2.47,3.46,3.92-.39,6.53-16.08,8.12-21.39.09Z"/>
      <path class="cls-2" d="M712.98,127.33c-6.51,5.28-15.54,6.96-19.12.58,6.02,2.1,12.11-.62,16.9-5.31l2.23,4.73Z"/>
      <path class="cls-2" d="M406.32,97.59l-3.9-1.64c2.3-8.3,1.33-16.57-2.7-23.88,6.61,6.68,8.67,16.26,6.6,25.52Z"/>
      <path class="cls-6" d="M793.79,121.8c4.97-2.94,6.01-9.1,3.99-14.35,3.11,1.85,4.44,5.63,4.29,9.31-.14,3.32-1.77,6.52-4.88,8.67-1.4-1.03-2.86-2.24-3.4-3.62Z"/>
      <path class="cls-2" d="M668.15,91.03c-1.43.26-2.98,1.04-5.06.86,1.73-6.03,2.59-12.11.34-17.77,5.81,6.2,4.43,8.65,4.72,16.91Z"/>
      <path class="cls-5" d="M428.17,59.53c-1.39.03-2.87.6-4.55.03,1.81-4.86,2.68-9.31,1.71-13.8,2.25.76,3.57,3.13,3.78,5.74.23,2.87-.32,5.48-.94,8.03Z"/>
      <path class="cls-2" d="M75.38,94.78c-4.66-3.04-5.64-8.98-4.71-14.16,1.24.22,2.51,2.08,3.45,3.24-.63,4.01-.3,7.57,1.26,10.92Z"/>
      <path class="cls-6" d="M216.76,91.64c-.88.39-1.76,1.78-3.26,1.64-.11-4.94-1.27-9.39-2.92-13.51,2.41,1.24,3.9,4.41,4.82,7.37l1.37,4.5Z"/>
      <path class="cls-2" d="M156.92,83.18c-.42-.07-.7-.46-.6-.88.33.15.56.52.6.88Z"/>
      <path class="cls-3" d="M250.8,34.87c-.32-.17-.58-.43-.72-.78l.72.78Z"/>
      <path class="cls-6" d="M797.27,106.89c-.33-.16-.59-.43-.72-.8l.72.8Z"/>
      <path class="cls-6" d="M637.53,36.94c-12.45-3.91-26.67,5.26-34.13,15.48l-5.64-1.48c4.67-5.97,10.09-10.94,16.74-14.51,8.09-4.35,18.83-5.94,23.02.52Z"/>
      <path class="cls-1" d="M698.04,86.94c-2.04-.24-3.94.73-5.7,2.23-7.53,6.42-11.63,15.73-12.93,25.34-1.54.35-3.14-1.3-3.03-3.01,1.4-20.81,20.24-35.26,21.66-24.56Z"/>
      <path class="cls-5" d="M645.16,89.97c-4.11,6.09-6.67,13.25-6.63,20.57-6.31-.68-1.96-18.81,4.99-26.61l1.64,6.04Z"/>
      <path class="cls-5" d="M743.17,95.49c-5.51,1.72-9.27,6.27-11.93,11.73-1.84.62-3.34,1.39-5.62.99,1.99-4.71,4.52-8.89,8-12.52l5.32-3.57c1-.67,2.94-.63,3.57.2.48.64,1.08,1.97.65,3.18Z"/>
      <path class="cls-1" d="M657.12,80.74c-2.98.24-3.51,5-3.14,9.35-3.85-2.82-4.59-9.59-.8-12.93,1.13-1,2.87-.14,3.26.9.23.63.81,1.62.68,2.68Z"/>
      <path class="cls-3" d="M622.57,60.84c-1.54-.37-2.73-1.41-3.18-2.84-.83-2.61,1.82-4.15,2.59-6.74,1.19,1.16,2.95,1.97,3.59,4.02-1.65,1.7-2.89,3.49-3,5.57Z"/>
      <path class="cls-1" d="M173.91,51.96c-14.51-4.66-27.38,13.24-31.94,27.13-1.63,1.12-3.21,2.22-5.54,2.85,3.52-14.06,13.01-30.57,26.69-34,4.17-1.04,8.96.33,10.79,4.02Z"/>
      <path class="cls-3" d="M271.25,75.22c-2.32.01-4.31,1.63-5.73,3.8-5.27,8.11-6.34,18.03-5,27.35-1.12.02-2.72-.64-3.05-2.27-3.22-15.94,4.11-33.2,10.35-32.27,1.63.24,2.81,1.67,3.42,3.39Z"/>
      <path class="cls-5" d="M245.97,47.38c-.74.04-1.62.75-2.01,1.83-2.42,6.82-4.45,13.56-5.42,20.69-1.69,3.06-3.22,5.89-5.6,8.63,1.24-10.94,3.67-20.98,7.11-31.13.81-2.4,2.2-4.37,4.53-5.59,1.37,1.8,1.65,3.64,1.38,5.57Z"/>
      <path class="cls-1" d="M195.38,97.25c-2.07,6.94-2.34,14.32-.69,21.44-5.5-2.97-5.34-17.73-2.28-26.21,1.47,1.34,2.29,3.02,2.97,4.77Z"/>
      <path class="cls-5" d="M204.16,85.17c-2.86.91-2.55,4.29-1.99,8.15-3.48-1.97-4.82-7.52-2.63-10.91.78-1.21,2.6-.54,3.24,0,.83.69.87,1.85,1.39,2.76Z"/>
      <path class="cls-3" d="M163.68,76.75c-1.05-.32-2.04-.47-2.67-1.49-.43-.69-.75-1.65-.43-2.73l1.18-3.79c.95.83,3.09,1.76,3.14,3.53.04,1.59-.88,3.13-1.21,4.49Z"/>
      <path class="cls-6" d="M383.55,98.86c-9.41-2.83-19.43-3.91-29.4-2.82l-1.09,15.65c-3.51,3.32-10.07.81-12.69-2.61,3.08.61,6.26,1.24,9.5-.33l.84-16.14c11.44-1.18,22.72.38,33.55,3.88.27.76-.46,2.17-.72,2.36Z"/>
      <path class="cls-1" d="M337.05,100.72c-9.15,3.71-14.94,11.1-11.61,20.73-5.27-4.08-5.7-11.78-1.29-17.31,3.24-4.06,7.81-6.61,12.91-8.42v5Z"/>
      <path class="cls-2" d="M382.18,72.9c-9.34-5-18.12,1.09-21.39-5.47l9.53-.08c4.91-.04,8.91,2.22,11.86,5.54Z"/>
      <path class="cls-5" d="M470.12,65.54c-3.78,2.78-5.18,7.67-6.74,12.36-1.24,1.02-2.35,2.03-4.28,2.54.26-8.35,7.01-21.81,10.27-18.94,1.02.9,1.02,2.89.75,4.05Z"/>
    </g>
  </g>
</svg>